<svg xmlns="http://www.w3.org/2000/svg" width="61" height="59" viewBox="0 0 61 59">
  <defs>
    <style>
      .cls-1 {
        fill: #0d4eff;
      }
    </style>
  </defs>
  <g id="Group_3" data-name="Group 3" transform="translate(-0.356 0.041)">
    <ellipse id="Ellipse_2" data-name="Ellipse 2" class="cls-1" cx="13" cy="12.5" rx="13" ry="12.5" transform="translate(17.356 -0.041)"/>
    <path id="Subtraction_1" data-name="Subtraction 1" class="cls-1" d="M61,30H0c0-.021,0-.042,0-.063v-.021A29.409,29.409,0,0,1,5.209,13.19,30.265,30.265,0,0,1,8.933,8.762,30.631,30.631,0,0,1,24.353.608a31.387,31.387,0,0,1,12.294,0,30.611,30.611,0,0,1,15.42,8.154,30.266,30.266,0,0,1,3.724,4.428A29.743,29.743,0,0,1,58.6,18.272,29.33,29.33,0,0,1,61,29.916c0,.028,0,.055,0,.084Z" transform="translate(0.356 28.959)"/>
  </g>
</svg>
